<svg viewBox="0 0 205 50" fill="none" xmlns="http://www.w3.org/2000/svg">
    <g clip-path="url(#a)">
        <path d="M74.43 45.435c-4.29 0-7.616-1.09-9.976-3.269-2.362-2.178-3.543-5.256-3.543-9.231 0-2.539.578-4.772 1.736-6.7 1.157-1.927 2.77-3.43 4.843-4.507 2.072-1.077 4.47-1.616 7.192-1.616 1.518 0 3.084.173 4.699.52 1.613.347 3 .82 4.156 1.419l.29 6.825h-1.338l-1.518-2.048c-1.133-1.532-2.138-2.599-3.017-3.197-.88-.598-1.886-.898-3.018-.898-1.517 0-2.844.426-3.975 1.275-1.133.85-2.013 2.035-2.64 3.557-.626 1.522-.939 3.31-.939 5.37 0 1.94.337 3.634 1.013 5.082.674 1.449 1.62 2.58 2.837 3.395 1.216.815 2.633 1.222 4.246 1.222.554 0 1.09-.072 1.608-.215.518-.143.922-.336 1.21-.575v-3.772c0-.623-.12-1.096-.361-1.419-.24-.322-.711-.652-1.41-.988l-1.157-.61V33.76h10.88v1.293l-.723.395c-.41.192-.7.443-.868.754-.17.311-.252.743-.252 1.294v5.316c-1.23.862-2.694 1.515-4.392 1.958-1.698.443-3.56.664-5.585.664h.002ZM98.002 45.075H87.05v-1.222l1.265-.683c.53-.31.885-.622 1.067-.933.181-.312.271-.802.271-1.473v-6.897c0-.91-.09-1.545-.27-1.903-.181-.359-.524-.634-1.03-.826l-1.158-.468v-1.222l7.085-2.838 1.12.683v13.47c0 .67.09 1.161.271 1.472.18.312.537.623 1.066.934l1.265.683v1.222l.001.001ZM177.45 45.435c-1.18 0-2.392-.156-3.632-.468-1.242-.31-2.332-.765-3.272-1.365l.578-4.956h1.301l1.084 1.616c.699 1.03 1.361 1.773 1.988 2.227.627.455 1.385.683 2.277.683.699 0 1.271-.162 1.717-.485.446-.323.668-.82.668-1.49 0-.311-.109-.623-.325-.934-.217-.31-.645-.658-1.284-1.04-.638-.384-1.584-.838-2.836-1.366-1.64-.694-2.856-1.503-3.652-2.425-.794-.923-1.193-2.006-1.193-3.252 0-1.7.644-3.053 1.933-4.058 1.289-1.006 2.995-1.51 5.114-1.51 1.205 0 2.398.114 3.579.342 1.18.228 2.181.534 3 .916l-.506 4.598h-1.374c-.241-.382-.506-.76-.795-1.131a24.348 24.348 0 0 0-.939-1.132c-.772-.884-1.711-1.33-2.82-1.33-.747 0-1.313.139-1.698.414-.386.275-.578.641-.578 1.096 0 .407.121.771.362 1.095.241.323.692.672 1.355 1.042.663.371 1.645.844 2.946 1.418 1.831.815 3.096 1.646 3.795 2.497.698.85 1.048 1.85 1.048 2.999s-.337 2.216-1.013 3.125c-.675.91-1.603 1.616-2.783 2.12-1.181.503-2.53.754-4.049.754h.004ZM195.677 45.435c-2.868 0-5.121-.813-6.759-2.442-1.639-1.628-2.458-3.903-2.458-6.826 0-1.867.403-3.52 1.21-4.956a8.8 8.8 0 0 1 3.326-3.376c1.41-.814 2.995-1.222 4.753-1.222s3.193.33 4.446.988a6.863 6.863 0 0 1 2.891 2.838c.674 1.233 1.013 2.712 1.013 4.436v.862h-11.386v.18c0 1.987.5 3.502 1.5 4.543 1 1.041 2.415 1.562 4.247 1.562.698 0 1.361-.108 1.987-.323.627-.215 1.326-.55 2.097-1.005l1.265 1.544c-1.108 1.102-2.326 1.91-3.651 2.425-1.325.515-2.82.772-4.482.772h.001Zm-2.891-11.927 5.566-.143c0-1.437-.222-2.544-.668-3.323-.446-.777-1.066-1.168-1.862-1.168-.892 0-1.585.359-2.078 1.078-.495.718-.813 1.903-.958 3.556ZM96.234 20.453v1.256a3.567 3.567 0 0 0-3.567 3.567h-1.256a3.567 3.567 0 0 0-3.567-3.567v-1.256a3.567 3.567 0 0 0 3.567-3.567l1.256-.001a3.568 3.568 0 0 0 3.567 3.57v-.002ZM124.285 29.084l.012-.007c.053-.036.107-.07.163-.106l1.213-.778v-1.222h-4.589v-4.49l-1.266-.719-3.903 5.21h-7.7a68.306 68.306 0 0 1-.072-3.017c0-1.223.145-2.121.433-2.695.29-.575.736-.863 1.338-.863.507 0 1.049.247 1.627.737.578.49 1.276 1.419 2.097 2.784h1.229l.542-4.992c-1.158-.336-2.121-.551-2.893-.647a22.235 22.235 0 0 0-2.711-.144c-2.409 0-4.271.574-5.584 1.724-1.314 1.149-1.969 2.79-1.969 4.92 0 .144.011.384.036.72.024.335.06.803.107 1.4l-3.253.612v2.19h3.435v11.064c0 .67-.09 1.162-.271 1.472-.181.312-.538.624-1.067.935l-1.265.681v1.222h11.783v-1.222l-1.481-.681c-.747-.383-1.259-.743-1.536-1.079-.278-.334-.416-.777-.416-1.328V29.701h7.012v8.945c0 1.7.145 3.047.434 4.04.289.995.778 1.7 1.463 2.12.687.418 1.621.628 2.803.628 1.181 0 2.234-.161 3.307-.485 1.071-.323 1.945-.723 2.62-1.203l-.506-1.868c-.337.12-.687.215-1.049.287a5.062 5.062 0 0 1-.975.108c-.845 0-1.446-.346-1.807-1.042-.361-.694-.542-1.916-.542-3.664v-7.83h2.183l1.018-.653ZM156.265 29.526c.109-.104.225-.194.345-.274-.047.034-.09.067-.132.1-.173.138-.31.265-.406.386a2.907 2.907 0 0 0-.271.413 2.145 2.145 0 0 1 .464-.625ZM160.465 31.324v.079l-.001.057v-.301c.003.055.004.11.004.165h-.003Z" fill="#F25757"/>
        <path d="M156.265 29.526a2.145 2.145 0 0 0-.464.625 2.907 2.907 0 0 1 .271-.413c.096-.12.233-.248.406-.386.042-.033.085-.066.132-.1-.12.08-.236.17-.345.274Zm4.196 1.633v.301l.001-.057v-.079c0-.056 0-.11-.004-.165h.003Z" fill="#F25757"/>
        <path d="M168.811 43.855v1.22h-10.952v-1.22l1.265-.683c.53-.311.885-.623 1.066-.934.181-.311.271-.801.271-1.473V31.46l.001-.057v-.079c0-.056 0-.11-.004-.165-.031-.693-.268-1.24-.708-1.646a2.423 2.423 0 0 0-.735-.468 2.617 2.617 0 0 0-1.009-.19c-.527 0-.99.131-1.392.392l-.007.005c-.12.08-.236.17-.345.274a2.145 2.145 0 0 0-.464.625c-.093.172-.183.37-.271.592l-5.059 13.363-3.146 1.329-4.916-10.956-4.047 9.627-3.254 1.329-5.711-14.62c-.17-.48-.373-.85-.614-1.113-.241-.264-.64-.587-1.193-.97l-.759-.539v-1.222h11.06v1.222l-.939.395c-.386.145-.687.324-.904.539-.218.215-.325.432-.325.647 0 .143.011.305.036.484.024.18.084.402.18.665l2.278 6.896 4.084-10.022 3.253-.826 4.591 10.884 2.458-6.932c.168-.502.253-.885.253-1.15 0-.239-.096-.46-.29-.663-.192-.204-.493-.377-.904-.522l-.939-.395v-1.222h14.046l1.44.878v12.916c0 .672.091 1.162.271 1.473a1.222 1.222 0 0 0 .17.234c.033.039.068.077.109.116.195.195.457.389.788.584l1.265.683h.002Z" fill="#F25757"/>
        <path d="M166.479 42.238c.017.03.036.059.054.088-.02-.029-.04-.058-.056-.088h.002ZM168.811 45.075h-10.952v.001h10.952v-.001ZM156.264 29.526c.109-.104.226-.194.346-.274-.047.034-.09.067-.132.1-.173.138-.31.265-.406.386a2.23 2.23 0 0 0-.16.226l-.006-.002c.099-.16.218-.305.358-.436ZM160.465 31.324v.079h-.001v-.244c.003.055.004.11.004.165h-.003ZM162.847 24.078c-.796 0-1.435-.263-1.919-.79a2.668 2.668 0 0 1-.724-1.864c0-.809.256-1.454.768-1.935.512-.48 1.137-.72 1.875-.72.739 0 1.364.235 1.876.706.512.47.768 1.12.768 1.949s-.241 1.431-.725 1.92c-.483.49-1.123.734-1.919.734Z" fill="#F25757"/>
        <path d="M39.905 12.254H2.66A2.66 2.66 0 0 0 0 14.914v5.32a2.66 2.66 0 0 0 2.66 2.661h37.245a2.66 2.66 0 0 0 2.66-2.66v-5.32a2.66 2.66 0 0 0-2.66-2.661Z" fill="#61E8E1"/>
        <path d="M35.004 31.779H3.38a1.814 1.814 0 0 1-1.814-1.815v-2.76c0-1.003.811-1.815 1.814-1.815h31.625c1.003 0 1.814.812 1.814 1.815v2.76a1.814 1.814 0 0 1-1.814 1.815Zm5.801 7.295v-2.76a1.814 1.814 0 0 0-1.814-1.815H3.38a1.814 1.814 0 0 0-1.814 1.815v2.76c0 1.003.811 1.815 1.814 1.815H38.99a1.814 1.814 0 0 0 1.814-1.815Zm-9.817 9.112v-2.761a1.814 1.814 0 0 0-1.814-1.814H3.38a1.814 1.814 0 0 0-1.814 1.814v2.76c0 1.003.811 1.815 1.814 1.815h25.795a1.814 1.814 0 0 0 1.814-1.814Z" fill="#1EC6BA"/>
        <path d="M37.244 7.316A7.317 7.317 0 0 0 30.687.039c-.003-.002-.007-.002-.011-.002a7.801 7.801 0 0 0-.56-.034C30.058 0 30 0 29.94 0h-.195a7.503 7.503 0 0 0-6.46 3.692l-.579.988-1.424 2.428-.003-.004-1.717-2.92-.284-.484a7.492 7.492 0 0 0-6.46-3.7h-.187c-.214 0-.426.01-.634.029-.037.003-.075.005-.112.01-.198.02-.394.047-.586.084a6.574 6.574 0 0 0-1.006.261 6.888 6.888 0 0 0-.506.193c-.442.186-.86.415-1.254.68-.044.032-.09.062-.134.095a7.411 7.411 0 0 0-.935.79A7.297 7.297 0 0 0 5.32 7.317c0 1.197.29 2.327.797 3.326h-.003a7.325 7.325 0 0 0 6.516 3.99h4.596c-.628.75-1.269 1.201-1.901 1.325-.524.1-1-.009-1.866-.228-1.062-.268-2.38-.603-4.224-.452-1.724.14-3.409.665-5.02 1.563l2.684.91-.848 2.5c1.142-.643 2.316-1.018 3.498-1.114 1.204-.097 2.057.118 2.959.346 1.012.257 2.16.546 3.557.275 1.18-.23 2.26-.793 3.248-1.696V50h3.936V14.632h6.69a7.322 7.322 0 0 0 6.516-3.99h-.01a7.319 7.319 0 0 0 .798-3.326Zm-24.613 3.326c-.113 0-.224-.006-.334-.018-.029-.001-.058-.005-.085-.008a3.133 3.133 0 0 1-.165-.026h-.004a3.326 3.326 0 0 1 0-6.547h.004a3.276 3.276 0 0 1 .584-.052h.188c1.239 0 2.395.657 3.017 1.729l.287.487 2.607 4.435h-6.1Zm17.382-.002H23.835l2.892-4.922a3.506 3.506 0 0 1 3.018-1.728h.268a3.326 3.326 0 0 1 0 6.649v.001Z" fill="#F25757"/>
        <path d="M33.105 30.852 21.13 18.877l-.043-6.408 6.408.043L39.47 24.487l-6.365 6.365Z" fill="#DBAD6A"/>
        <path d="m27.495 14.54-4.336 4.337 9.947 9.948 4.337-4.337-9.948-9.947Z" fill="#EAC7A2"/>
        <path d="M33.702 25.736c-.006-.245-.075-.437-.21-.588-.134-.146-.282-.2-.527-.29-.251-.091-.564-.204-.976-.463-.202-.126-.816-.509-1.277-1.072-.541-.657-.639-1.272-.71-1.721-.04-.251-.072-.45-.16-.52-.022-.008-.098 0-.166.003a5.82 5.82 0 0 1-.767.018c-.475-.018-.66-.066-.79-.204-.27-.287-.108-.696.023-1.023.054-.137.157-.396.13-.466-.008 0-.067-.01-.106-.015-.13-.02-.327-.05-.493-.217-.269-.27-.224-.638-.193-.908.006-.05.015-.117.018-.17-.11.02-.37.105-.918.448l-.304-.486c.893-.56 1.37-.675 1.646-.403.187.185.155.448.128.68-.02.17-.043.361.028.434.03.03.07.04.171.053.126.02.301.045.442.194.287.303.117.727-.017 1.067-.05.122-.127.317-.13.407.05.01.158.026.386.035.343.013.55-.004.699-.016.213-.017.381-.031.57.12.263.21.315.533.37.877.064.406.146.91.586 1.447.403.49.958.838 1.14.95.36.227.63.325.868.411.284.103.527.192.757.445.23.253.35.576.36.958l-.574.014-.004.001Z" fill="#9B7042"/>
        <path d="M24.33 15.711a1.061 1.061 0 0 1-1.75-.398l-2.169-2.169-.004-1.354 1.361-.004 2.184 2.184a1.061 1.061 0 0 1 .377 1.741Z" fill="#F25757"/>
    </g>
    <defs>
        <clipPath id="a">
            <path fill="#fff" d="M0 0h204.1v50H0z"/>
        </clipPath>
    </defs>
</svg>
